<svg width="128" height="128" viewBox="0 0 128 128" fill="none" xmlns="http://www.w3.org/2000/svg">
<path d="M115.31 49.12H115.58V46.71C115.58 46.0708 115.326 45.4578 114.874 45.0059C114.422 44.5539 113.809 44.3 113.17 44.3H101C100.361 44.3 99.7478 44.5539 99.2959 45.0059C98.8439 45.4578 98.59 46.0708 98.59 46.71V49.12H98.87C98.0743 49.12 97.3113 49.4361 96.7487 49.9987C96.1861 50.5613 95.87 51.3243 95.87 52.12V62.28C95.87 63.0756 96.1861 63.8387 96.7487 64.4013C97.3113 64.9639 98.0743 65.28 98.87 65.28H115.32C116.116 65.28 116.879 64.9639 117.441 64.4013C118.004 63.8387 118.32 63.0756 118.32 62.28V52.12C118.32 51.3243 118.004 50.5613 117.441 49.9987C116.879 49.4361 116.116 49.12 115.32 49.12" fill="#76C23B"/>
<path d="M105.08 115.12C102.826 115.117 100.666 114.221 99.0725 112.628C97.479 111.034 96.5827 108.874 96.58 106.62V63.28H113.58V106.62C113.58 108.874 112.684 111.036 111.09 112.63C109.496 114.224 107.334 115.12 105.08 115.12V115.12Z" stroke="black" stroke-width="2" stroke-miterlimit="10"/>
<path d="M113.31 47.12H96.86C95.2031 47.12 93.86 48.4631 93.86 50.12V60.29C93.86 61.9469 95.2031 63.29 96.86 63.29H113.31C114.967 63.29 116.31 61.9469 116.31 60.29V50.12C116.31 48.4631 114.967 47.12 113.31 47.12Z" stroke="black" stroke-width="2" stroke-miterlimit="10"/>
<path d="M113.58 47.12H96.58V44.71C96.58 44.3927 96.6427 44.0785 96.7644 43.7854C96.8862 43.4924 97.0646 43.2263 97.2894 43.0023C97.5143 42.7784 97.7811 42.6011 98.0747 42.4806C98.3682 42.3601 98.6827 42.2987 99 42.3H111.18C111.819 42.3 112.432 42.5539 112.884 43.0059C113.336 43.4578 113.59 44.0708 113.59 44.71L113.58 47.12Z" stroke="black" stroke-width="2" stroke-miterlimit="10"/>
<path d="M105.2 47.53V56.53" stroke="black" stroke-width="2" stroke-miterlimit="10" stroke-linecap="round"/>
<path d="M100.15 47.53V56.53" stroke="black" stroke-width="2" stroke-miterlimit="10" stroke-linecap="round"/>
<path d="M110.24 47.53V56.53" stroke="black" stroke-width="2" stroke-miterlimit="10" stroke-linecap="round"/>
<path d="M103.7 104.35H96.58V69.62H103.7C104.496 69.62 105.259 69.9361 105.821 70.4987C106.384 71.0613 106.7 71.8243 106.7 72.62V101.35C106.7 102.146 106.384 102.909 105.821 103.471C105.259 104.034 104.496 104.35 103.7 104.35V104.35Z" stroke="black" stroke-width="2" stroke-miterlimit="10" stroke-linecap="round"/>
<path d="M74.58 20.92H23.66C17.502 20.92 12.51 25.912 12.51 32.07V103.59C12.51 109.748 17.502 114.74 23.66 114.74H74.58C80.738 114.74 85.73 109.748 85.73 103.59V32.07C85.73 25.912 80.738 20.92 74.58 20.92Z" fill="#F4CE64" stroke="black" stroke-width="2" stroke-miterlimit="10" stroke-linecap="round"/>
<path d="M75.82 110.8H27.67C26.0787 110.8 24.5526 110.168 23.4274 109.043C22.3022 107.917 21.67 106.391 21.67 104.8V36.08C21.67 34.4887 22.3022 32.9626 23.4274 31.8374C24.5526 30.7122 26.0787 30.08 27.67 30.08H75.82C77.4113 30.08 78.9374 30.7122 80.0627 31.8374C81.1879 32.9626 81.82 34.4887 81.82 36.08V104.83C81.82 106.421 81.1879 107.947 80.0627 109.073C78.9374 110.198 77.4113 110.83 75.82 110.83" fill="white"/>
<path d="M73.2 27.48H25.05C21.7473 27.48 19.07 30.1573 19.07 33.46V102.2C19.07 105.503 21.7473 108.18 25.05 108.18H73.2C76.5027 108.18 79.18 105.503 79.18 102.2V33.46C79.18 30.1573 76.5027 27.48 73.2 27.48Z" stroke="black" stroke-width="2" stroke-miterlimit="10"/>
<path d="M27.68 67.62H72.52" stroke="black" stroke-width="2" stroke-miterlimit="10" stroke-linecap="round"/>
<path d="M27.68 60.1H72.52" stroke="black" stroke-width="2" stroke-miterlimit="10" stroke-linecap="round"/>
<path d="M27.68 52.59H72.52" stroke="black" stroke-width="2" stroke-miterlimit="10" stroke-linecap="round"/>
<path d="M27.68 42.08H49.12" stroke="black" stroke-width="2" stroke-miterlimit="10" stroke-linecap="round"/>
<path d="M27.68 75.13H72.52" stroke="black" stroke-width="2" stroke-miterlimit="10" stroke-linecap="round"/>
<path d="M27.68 82.64H48.49" stroke="black" stroke-width="2" stroke-miterlimit="10" stroke-linecap="round"/>
<path d="M69.55 82.64H72.52" stroke="black" stroke-width="2" stroke-miterlimit="10" stroke-linecap="round"/>
<path d="M68.43 16.62H29.82C28.373 16.62 27.2 17.793 27.2 19.24V29.16C27.2 30.607 28.373 31.78 29.82 31.78H68.43C69.877 31.78 71.05 30.607 71.05 29.16V19.24C71.05 17.793 69.877 16.62 68.43 16.62Z" fill="white" stroke="black" stroke-width="2" stroke-miterlimit="10"/>
<path d="M42.91 10.81H55.34C56.9313 10.81 58.4574 11.4422 59.5826 12.5674C60.7079 13.6926 61.34 15.2187 61.34 16.81V17.81C61.34 18.1972 61.1862 18.5686 60.9124 18.8424C60.6386 19.1162 60.2672 19.27 59.88 19.27H38.41C38.0245 19.257 37.6598 19.0919 37.3956 18.8108C37.1314 18.5298 36.9892 18.1556 37 17.77V16.77C37 15.1787 37.6321 13.6526 38.7574 12.5274C39.8826 11.4022 41.4087 10.77 43 10.77L42.91 10.81Z" fill="white" stroke="black" stroke-width="2" stroke-miterlimit="10"/>
<path d="M59.24 100.42C62.9237 100.42 65.91 97.4338 65.91 93.75C65.91 90.0663 62.9237 87.08 59.24 87.08C55.5563 87.08 52.57 90.0663 52.57 93.75C52.57 97.4338 55.5563 100.42 59.24 100.42Z" fill="#76C23B" stroke="black" stroke-width="2" stroke-linecap="round" stroke-linejoin="round"/>
</svg>
