<svg width="128" height="128" viewBox="0 0 128 128" fill="none" xmlns="http://www.w3.org/2000/svg">
<path d="M114.4 18H20.8504C19.5674 18.0444 18.3543 18.5956 17.4771 19.5328C16.5998 20.4701 16.1299 21.7169 16.1704 23V33H119.07V23C119.114 21.7178 118.646 20.471 117.77 19.5334C116.895 18.5959 115.683 18.0443 114.4 18Z" fill="#B9E3B5"/>
<path d="M110.769 95H17.2293C15.9463 94.9556 14.7332 94.4044 13.856 93.4672C12.9787 92.5299 12.5088 91.2831 12.5493 90V20C12.5088 18.7169 12.9787 17.4701 13.856 16.5328C14.7332 15.5956 15.9463 15.0444 17.2293 15H110.769C112.052 15.0444 113.265 15.5956 114.143 16.5328C115.02 17.4701 115.49 18.7169 115.449 20V90C115.49 91.2831 115.02 92.5299 114.143 93.4672C113.265 94.4044 112.052 94.9556 110.769 95V95Z" stroke="black" stroke-width="2" stroke-miterlimit="10"/>
<path d="M13.1719 30H116.072" stroke="black" stroke-width="2" stroke-miterlimit="10"/>
<path d="M27.3894 11.3202C27.3894 9.44793 25.8716 7.93018 23.9994 7.93018C22.1271 7.93018 20.6094 9.44793 20.6094 11.3202V18.6902C20.6094 20.5624 22.1271 22.0802 23.9994 22.0802C25.8716 22.0802 27.3894 20.5624 27.3894 18.6902V11.3202Z" fill="white" stroke="black" stroke-width="2" stroke-miterlimit="10"/>
<path d="M47.3894 11.3202C47.3894 9.44793 45.8716 7.93018 43.9994 7.93018C42.1271 7.93018 40.6094 9.44793 40.6094 11.3202V18.6902C40.6094 20.5624 42.1271 22.0802 43.9994 22.0802C45.8716 22.0802 47.3894 20.5624 47.3894 18.6902V11.3202Z" fill="white" stroke="black" stroke-width="2" stroke-miterlimit="10"/>
<path d="M67.3894 11.3202C67.3894 9.44793 65.8716 7.93018 63.9994 7.93018C62.1271 7.93018 60.6094 9.44793 60.6094 11.3202V18.6902C60.6094 20.5624 62.1271 22.0802 63.9994 22.0802C65.8716 22.0802 67.3894 20.5624 67.3894 18.6902V11.3202Z" fill="white" stroke="black" stroke-width="2" stroke-miterlimit="10"/>
<path d="M87.3894 11.3202C87.3894 9.44793 85.8716 7.93018 83.9994 7.93018C82.1271 7.93018 80.6094 9.44793 80.6094 11.3202V18.6902C80.6094 20.5624 82.1271 22.0802 83.9994 22.0802C85.8716 22.0802 87.3894 20.5624 87.3894 18.6902V11.3202Z" fill="white" stroke="black" stroke-width="2" stroke-miterlimit="10"/>
<path d="M107.389 11.3202C107.389 9.44793 105.872 7.93018 103.999 7.93018C102.127 7.93018 100.609 9.44793 100.609 11.3202V18.6902C100.609 20.5624 102.127 22.0802 103.999 22.0802C105.872 22.0802 107.389 20.5624 107.389 18.6902V11.3202Z" fill="white" stroke="black" stroke-width="2" stroke-miterlimit="10"/>
<path d="M19.9492 43.2002H28.0392" stroke="black" stroke-width="2" stroke-miterlimit="10" stroke-linecap="round"/>
<path d="M59.9609 43.2002H68.0409" stroke="black" stroke-width="2" stroke-miterlimit="10" stroke-linecap="round"/>
<path d="M79.9609 43.2002H88.0409" stroke="black" stroke-width="2" stroke-miterlimit="10" stroke-linecap="round"/>
<path d="M99.9609 43.2002H108.051" stroke="black" stroke-width="2" stroke-miterlimit="10" stroke-linecap="round"/>
<path d="M19.9492 53.2002H28.0392" stroke="black" stroke-width="2" stroke-miterlimit="10" stroke-linecap="round"/>
<path d="M39.9609 53.2002H48.0409" stroke="black" stroke-width="2" stroke-miterlimit="10" stroke-linecap="round"/>
<path d="M59.9609 53.2002H68.0409" stroke="black" stroke-width="2" stroke-miterlimit="10" stroke-linecap="round"/>
<path d="M79.9609 53.2002H88.0409" stroke="black" stroke-width="2" stroke-miterlimit="10" stroke-linecap="round"/>
<path d="M99.9609 53.2002H108.051" stroke="black" stroke-width="2" stroke-miterlimit="10" stroke-linecap="round"/>
<path d="M19.9492 63.2002H28.0392" stroke="black" stroke-width="2" stroke-miterlimit="10" stroke-linecap="round"/>
<path d="M39.9609 63.2002H48.0409" stroke="black" stroke-width="2" stroke-miterlimit="10" stroke-linecap="round"/>
<path d="M59.9609 63.2002H68.0409" stroke="black" stroke-width="2" stroke-miterlimit="10" stroke-linecap="round"/>
<path d="M99.9609 63.2002H108.051" stroke="black" stroke-width="2" stroke-miterlimit="10" stroke-linecap="round"/>
<path d="M19.9492 73.2002H28.0392" stroke="black" stroke-width="2" stroke-miterlimit="10" stroke-linecap="round"/>
<path d="M39.9609 73.2002H48.0409" stroke="black" stroke-width="2" stroke-miterlimit="10" stroke-linecap="round"/>
<path d="M59.9609 73.2002H68.0409" stroke="black" stroke-width="2" stroke-miterlimit="10" stroke-linecap="round"/>
<path d="M79.9609 73.2002H88.0409" stroke="black" stroke-width="2" stroke-miterlimit="10" stroke-linecap="round"/>
<path d="M99.9609 73.2002H108.051" stroke="black" stroke-width="2" stroke-miterlimit="10" stroke-linecap="round"/>
<path d="M19.9492 83.2002H28.0392" stroke="black" stroke-width="2" stroke-miterlimit="10" stroke-linecap="round"/>
<path d="M39.9609 83.2002H48.0409" stroke="black" stroke-width="2" stroke-miterlimit="10" stroke-linecap="round"/>
<path d="M59.9609 83.2002H68.0409" stroke="black" stroke-width="2" stroke-miterlimit="10" stroke-linecap="round"/>
<path d="M79.9609 83.2002H88.0409" stroke="black" stroke-width="2" stroke-miterlimit="10" stroke-linecap="round"/>
<path d="M99.9609 83.2002H108.051" stroke="black" stroke-width="2" stroke-miterlimit="10" stroke-linecap="round"/>
<path d="M84.0009 67.2402C86.2322 67.2402 88.0409 65.4314 88.0409 63.2002C88.0409 60.9689 86.2322 59.1602 84.0009 59.1602C81.7697 59.1602 79.9609 60.9689 79.9609 63.2002C79.9609 65.4314 81.7697 67.2402 84.0009 67.2402Z" fill="#F4CE64" stroke="black" stroke-width="2" stroke-linecap="round" stroke-linejoin="round"/>
<path d="M44.0009 47.1386C46.2322 47.1386 48.0409 45.3298 48.0409 43.0986C48.0409 40.8674 46.2322 39.0586 44.0009 39.0586C41.7697 39.0586 39.9609 40.8674 39.9609 43.0986C39.9609 45.3298 41.7697 47.1386 44.0009 47.1386Z" fill="#F4CE64" stroke="black" stroke-width="2" stroke-linecap="round" stroke-linejoin="round"/>
<path d="M20.1484 99.6595L25.9384 93.3395C22.4245 89.4087 20.5178 84.2999 20.5971 79.028C20.6764 73.7562 22.7358 68.707 26.3663 64.8837C29.9968 61.0603 34.9327 58.7424 40.1934 58.3906C45.4541 58.0388 50.6546 59.6787 54.7619 62.9845C58.8692 66.2904 61.5827 71.0203 62.3633 76.2347C63.1439 81.449 61.9345 86.7662 58.9754 91.13C56.0162 95.4937 51.5239 98.5847 46.3908 99.7888C41.2577 100.993 35.8594 100.222 31.2684 97.6295L20.1484 99.6595Z" fill="white"/>
<path d="M22.1484 101.66L27.9384 95.3395C24.4245 91.4087 22.5178 86.2999 22.5971 81.028C22.6764 75.7562 24.7358 70.707 28.3663 66.8837C31.9968 63.0603 36.9327 60.7424 42.1934 60.3906C47.4541 60.0388 52.6546 61.6787 56.7619 64.9845C60.8692 68.2904 63.5827 73.0203 64.3633 78.2347C65.1439 83.449 63.9345 88.7662 60.9754 93.13C58.0162 97.4937 53.5239 100.585 48.3908 101.789C43.2577 102.993 37.8594 102.222 33.2684 99.6295L22.1484 101.66Z" fill="#F4CE64"/>
<path d="M20.1484 99.6595L25.9384 93.3395C22.4245 89.4087 20.5178 84.2999 20.5971 79.028C20.6764 73.7562 22.7358 68.707 26.3663 64.8837C29.9968 61.0603 34.9327 58.7424 40.1934 58.3906C45.4541 58.0388 50.6546 59.6787 54.7619 62.9845C58.8692 66.2904 61.5827 71.0203 62.3633 76.2347C63.1439 81.449 61.9345 86.7662 58.9754 91.13C56.0162 95.4937 51.5239 98.5847 46.3908 99.7888C41.2577 100.993 35.8594 100.222 31.2684 97.6295L20.1484 99.6595Z" stroke="black" stroke-width="2" stroke-linecap="round" stroke-linejoin="round"/>
<path d="M31.7702 75.7899H37.8702V69.6999C37.8689 69.5209 37.9031 69.3435 37.971 69.1779C38.0389 69.0123 38.139 68.8618 38.2656 68.7353C38.3921 68.6087 38.5426 68.5086 38.7082 68.4407C38.8738 68.3728 39.0512 68.3386 39.2302 68.3399H43.5402C43.9009 68.3399 44.2468 68.4832 44.5019 68.7382C44.7569 68.9933 44.9002 69.3392 44.9002 69.6999V75.7899H51.0002C51.3635 75.7899 51.712 75.9342 51.9689 76.1911C52.2259 76.4481 52.3702 76.7965 52.3702 77.1599V81.4599C52.3702 81.8232 52.2259 82.1717 51.9689 82.4286C51.712 82.6855 51.3635 82.8299 51.0002 82.8299H44.9002V88.9199C44.9002 89.2806 44.7569 89.6265 44.5019 89.8816C44.2468 90.1366 43.9009 90.2799 43.5402 90.2799H39.2302C39.0512 90.2812 38.8738 90.2469 38.7082 90.1791C38.5426 90.1112 38.3921 90.0111 38.2656 89.8845C38.139 89.758 38.0389 89.6075 37.971 89.4419C37.9031 89.2763 37.8689 89.0989 37.8702 88.9199V82.8299H31.7702C31.5908 82.8299 31.4131 82.7944 31.2474 82.7254C31.0818 82.6564 30.9314 82.5554 30.805 82.428C30.6786 82.3007 30.5786 82.1496 30.5108 81.9834C30.4431 81.8172 30.4089 81.6393 30.4102 81.4599V77.1599C30.4089 76.9805 30.4431 76.8025 30.5108 76.6364C30.5786 76.4702 30.6786 76.3191 30.805 76.1917C30.9314 76.0644 31.0818 75.9633 31.2474 75.8944C31.4131 75.8254 31.5908 75.7899 31.7702 75.7899Z" fill="white" stroke="black" stroke-width="2" stroke-linecap="round" stroke-linejoin="round"/>
</svg>
