<svg id="Слой_1" data-name="Слой 1" xmlns="http://www.w3.org/2000/svg" viewBox="0 0 36 36"><defs><style>.cls-1,.cls-2,.cls-3{fill:none;stroke:#13353f;stroke-linecap:round;}.cls-2{fill-rule:evenodd;}.cls-3{stroke-linejoin:round;}.cls-4{fill:#8bc043;}</style></defs><g id="иконки-левого-меню"><g id="invitro_left_menu_icons" data-name="invitro left menu icons"><g id="diagnostics_menu" data-name="diagnostics menu"><g id="Group-6-Copy-11"><g id="icon-waves-copy-2"><g id="Page-1"><path id="Stroke-1" class="cls-1" d="M21.89,20.27l-6.16-6.11a1.59,1.59,0,0,1,.2-2.44l2.33-1.67a3.29,3.29,0,0,1,4.2.34l3.13,3.1a3.2,3.2,0,0,1,.43,4L24.41,20A1.65,1.65,0,0,1,21.89,20.27Z"/><path id="Stroke-3" class="cls-1" d="M21.55,20l-4.87,4.87a3.91,3.91,0,0,1-5.53-5.53L16,14.44"/><path id="Stroke-5" class="cls-2" d="M13.27,22.72a.94.94,0,0,1,0-1.32l1.14-1.14a.93.93,0,0,1,1.32,1.32l-1.14,1.14A.94.94,0,0,1,13.27,22.72Z"/><path id="Stroke-7" class="cls-1" d="M26.37,15.59c-1.23.4-3.14-.27-4.61-1.69s-2-3.1-1.4-4.1"/><path id="Stroke-11" class="cls-1" d="M23,8.2a3.63,3.63,0,0,1,3.83,1,3.62,3.62,0,0,1,1,3.83"/><path id="Stroke-13" class="cls-1" d="M31,11a5.23,5.23,0,0,0-1.54-4.41A5.2,5.2,0,0,0,25,5"/></g></g></g></g></g></g><path class="cls-3" d="M31,18.67a13.5,13.5,0,1,1-13.5-13.5"/><circle class="cls-4" cx="9.91" cy="7.35" r="2.39"/><circle class="cls-4" cx="25.91" cy="29.35" r="2.39"/></svg>