<?xml version="1.0" encoding="utf-8"?>
<!-- Generator: Adobe Illustrator 24.3.0, SVG Export Plug-In . SVG Version: 6.00 Build 0)  -->
<svg version="1.1" id="Слой_1" xmlns="http://www.w3.org/2000/svg" xmlns:xlink="http://www.w3.org/1999/xlink" x="0px" y="0px"
	 viewBox="0 0 36 36" style="enable-background:new 0 0 36 36;" xml:space="preserve">
<style type="text/css">
	.st0{fill:#8BC043;stroke:#00A9BF;stroke-width:0.98;stroke-linecap:round;stroke-dasharray:3.47,5.79;}
	.st1{fill:none;stroke:#13353F;stroke-linecap:round;}
</style>
<line class="st0" x1="2.7" y1="25.9" x2="33.5" y2="25.9"/>
<line class="st0" x1="33.5" y1="9.9" x2="2.7" y2="9.9"/>
<rect x="4.7" y="5.3" class="st1" width="26" height="26"/>
<path class="st1" d="M7.1,20.5h3.2c0.2,0,0.5-0.2,0.6-0.4l2.6-7.3c0.1-0.3,0.4-0.5,0.7-0.4c0.2,0.1,0.3,0.2,0.4,0.4l3.5,10.8
	c0.1,0.3,0.4,0.5,0.7,0.4c0.2-0.1,0.3-0.2,0.4-0.4l2.6-7.5c0.1-0.3,0.4-0.5,0.7-0.4c0.2,0.1,0.3,0.2,0.3,0.3l2,4.1
	c0.1,0.2,0.3,0.3,0.5,0.3h3"/>
</svg>
