<svg width="84" height="84" viewBox="0 0 84 84" fill="none" xmlns="http://www.w3.org/2000/svg">
<path d="M23.3655 21.2413C25.5522 16.6554 28.9167 12.7319 33.1155 9.87134" stroke="black" stroke-width="2" stroke-linecap="round" stroke-linejoin="round"/>
<path d="M64.9055 57.3013C63.3306 58.345 61.6557 59.2294 59.9055 59.9413" stroke="black" stroke-width="2" stroke-linecap="round" stroke-linejoin="round"/>
<path d="M38.8055 6.92135C44.8966 4.56614 51.6109 4.37029 57.8289 6.36648C64.0468 8.36266 69.3925 12.4302 72.9744 17.8908C76.5563 23.3513 78.1579 29.8748 77.5121 36.3733C76.8663 42.8719 74.0121 48.9525 69.4255 53.6013" stroke="black" stroke-width="2" stroke-linecap="round" stroke-linejoin="round"/>
<path d="M55.4655 74.8714L60.1055 70.2314C60.5959 69.7385 60.8711 69.0716 60.8711 68.3764C60.8711 67.6811 60.5959 67.0142 60.1055 66.5214L51.7455 58.1714C51.5028 57.9262 51.2139 57.7315 50.8955 57.5987C50.5771 57.4658 50.2355 57.3974 49.8905 57.3974C49.5455 57.3974 49.2039 57.4658 48.8855 57.5987C48.5671 57.7315 48.2782 57.9262 48.0355 58.1714L46.1855 60.0214C45.4467 60.7596 44.445 61.1744 43.4005 61.1744C42.3561 61.1744 41.3543 60.7596 40.6155 60.0214L39.6855 59.0914L27.6255 47.0614L26.6955 46.1314C25.9572 45.3925 25.5425 44.3908 25.5425 43.3464C25.5425 42.3019 25.9572 41.3002 26.6955 40.5614L28.5455 38.7114C28.7898 38.4671 28.9836 38.1772 29.1159 37.858C29.2481 37.5389 29.3161 37.1968 29.3161 36.8514C29.3161 36.5059 29.2481 36.1638 29.1159 35.8447C28.9836 35.5256 28.7898 35.2356 28.5455 34.9914L20.1955 26.6414C19.7027 26.151 19.0357 25.8757 18.3405 25.8757C17.6453 25.8757 16.9784 26.151 16.4855 26.6414L11.8455 31.2814C10.6264 32.4998 9.65928 33.9465 8.99945 35.5388C8.33962 37.1311 8 38.8378 8 40.5614C8 42.285 8.33962 43.9917 8.99945 45.584C9.65928 47.1763 10.6264 48.623 11.8455 49.8414L18.3455 56.3414L30.4055 68.4014L36.9055 74.8714C38.1239 76.0905 39.5706 77.0576 41.1629 77.7174C42.7552 78.3773 44.4619 78.7169 46.1855 78.7169C47.9091 78.7169 49.6158 78.3773 51.2081 77.7174C52.8004 77.0576 54.2471 76.0905 55.4655 74.8714Z" fill="#F4CE64"/>
<path d="M53.4655 72.8714L58.1055 68.2314C58.5959 67.7385 58.8711 67.0716 58.8711 66.3764C58.8711 65.6811 58.5959 65.0142 58.1055 64.5214L49.7455 56.1714C49.5028 55.9262 49.2139 55.7315 48.8955 55.5987C48.5771 55.4658 48.2355 55.3974 47.8905 55.3974C47.5455 55.3974 47.2039 55.4658 46.8855 55.5987C46.5671 55.7315 46.2782 55.9262 46.0355 56.1714L44.1855 58.0214C43.4467 58.7596 42.445 59.1744 41.4005 59.1744C40.3561 59.1744 39.3543 58.7596 38.6155 58.0214L37.6855 57.0914L25.6255 45.0614L24.6955 44.1314C23.9572 43.3925 23.5425 42.3908 23.5425 41.3464C23.5425 40.3019 23.9572 39.3002 24.6955 38.5614L26.5455 36.7114C26.7898 36.4671 26.9836 36.1772 27.1159 35.858C27.2481 35.5389 27.3161 35.1968 27.3161 34.8514C27.3161 34.5059 27.2481 34.1638 27.1159 33.8447C26.9836 33.5256 26.7898 33.2356 26.5455 32.9914L18.1955 24.6414C17.7027 24.151 17.0357 23.8757 16.3405 23.8757C15.6453 23.8757 14.9784 24.151 14.4855 24.6414L9.84552 29.2814C8.62639 30.4998 7.65928 31.9465 6.99945 33.5388C6.33962 35.1311 6 36.8378 6 38.5614C6 40.285 6.33962 41.9917 6.99945 43.584C7.65928 45.1763 8.62639 46.623 9.84552 47.8414L16.3455 54.3414L28.4055 66.4014L34.9055 72.8714C37.3675 75.3311 40.7053 76.7127 44.1855 76.7127C47.6657 76.7127 51.0035 75.3311 53.4655 72.8714V72.8714Z" stroke="black" stroke-width="2" stroke-linecap="round" stroke-linejoin="round"/>
<path d="M27.5455 8.9314L33.7155 9.4214L33.2155 15.5914" stroke="black" stroke-width="2" stroke-linecap="round" stroke-linejoin="round"/>
<path d="M74.8856 54.1414H68.6956V47.9514" stroke="black" stroke-width="2" stroke-linecap="round" stroke-linejoin="round"/>
<path d="M49.5355 48.8313C58.0352 48.8313 64.9255 41.9409 64.9255 33.4413C64.9255 24.9416 58.0352 18.0513 49.5355 18.0513C41.0358 18.0513 34.1455 24.9416 34.1455 33.4413C34.1455 41.9409 41.0358 48.8313 49.5355 48.8313Z" fill="#76C23B" stroke="black" stroke-width="2" stroke-linecap="round" stroke-linejoin="round"/>
<path d="M57.3955 29.7314L48.1555 38.9714L43.5355 34.3514" stroke="black" stroke-width="2" stroke-linecap="round" stroke-linejoin="round"/>
</svg>
