<svg width="84" height="84" viewBox="0 0 84 84" fill="none" xmlns="http://www.w3.org/2000/svg">
<path d="M77.15 10.74H10.21C9.2913 10.7713 8.42256 11.1659 7.79449 11.8371C7.16641 12.5083 6.83032 13.4012 6.86 14.32V21.47H80.49V14.32C80.506 13.8656 80.4323 13.4124 80.2731 12.9865C80.1139 12.5605 79.8723 12.1702 79.5621 11.8377C79.2519 11.5052 78.8792 11.2371 78.4653 11.0488C78.0514 10.8604 77.6045 10.7555 77.15 10.74Z" fill="#76C23B"/>
<path d="M75 58.68H8.05999C7.14395 58.6487 6.27775 58.2552 5.65155 57.5859C5.02535 56.9165 4.69032 56.0261 4.71999 55.11V12.17C4.69028 11.2529 5.025 10.3614 5.65094 9.69049C6.27687 9.01958 7.14306 8.62389 8.05999 8.59H75C75.9178 8.62391 76.785 9.01926 77.4125 9.68987C78.04 10.3605 78.377 11.252 78.35 12.17V55.11C78.377 56.027 78.0397 56.9175 77.4119 57.5865C76.7841 58.2555 75.9169 58.6487 75 58.68V58.68Z" stroke="black" stroke-width="2" stroke-miterlimit="10"/>
<path d="M4.72 19.33H78.35" stroke="black" stroke-width="2" stroke-miterlimit="10"/>
<path d="M10.44 15.75C11.4341 15.75 12.24 14.9441 12.24 13.95C12.24 12.9559 11.4341 12.15 10.44 12.15C9.4459 12.15 8.64001 12.9559 8.64001 13.95C8.64001 14.9441 9.4459 15.75 10.44 15.75Z" fill="white" stroke="black" stroke-width="2" stroke-miterlimit="10"/>
<path d="M18.44 15.75C19.4341 15.75 20.24 14.9441 20.24 13.95C20.24 12.9559 19.4341 12.15 18.44 12.15C17.4459 12.15 16.64 12.9559 16.64 13.95C16.64 14.9441 17.4459 15.75 18.44 15.75Z" fill="white" stroke="black" stroke-width="2" stroke-miterlimit="10"/>
<path d="M26.44 15.75C27.4341 15.75 28.24 14.9441 28.24 13.95C28.24 12.9559 27.4341 12.15 26.44 12.15C25.4459 12.15 24.64 12.9559 24.64 13.95C24.64 14.9441 25.4459 15.75 26.44 15.75Z" fill="white" stroke="black" stroke-width="2" stroke-miterlimit="10"/>
<path d="M21.75 29.2H16.02C15.2302 29.2 14.59 29.8402 14.59 30.6299V36.36C14.59 37.1497 15.2302 37.79 16.02 37.79H21.75C22.5397 37.79 23.18 37.1497 23.18 36.36V30.6299C23.18 29.8402 22.5397 29.2 21.75 29.2Z" fill="#F4CE64"/>
<path d="M19.75 27.2H14.02C13.2302 27.2 12.59 27.8402 12.59 28.6299V34.36C12.59 35.1497 13.2302 35.79 14.02 35.79H19.75C20.5397 35.79 21.18 35.1497 21.18 34.36V28.6299C21.18 27.8402 20.5397 27.2 19.75 27.2Z" stroke="black" stroke-width="2" stroke-miterlimit="10"/>
<path d="M26.9 29.35H46.22" stroke="black" stroke-width="2" stroke-miterlimit="10" stroke-linecap="round"/>
<path d="M26.9 33.64H61.96" stroke="black" stroke-width="2" stroke-miterlimit="10" stroke-linecap="round"/>
<path d="M71.26 25.77V46.4" stroke="black" stroke-width="2" stroke-miterlimit="10" stroke-linecap="round"/>
<path d="M19.75 41.51H14.02C13.2302 41.51 12.59 42.1502 12.59 42.94V48.67C12.59 49.4598 13.2302 50.1 14.02 50.1H19.75C20.5398 50.1 21.18 49.4598 21.18 48.67V42.94C21.18 42.1502 20.5398 41.51 19.75 41.51Z" stroke="black" stroke-width="2" stroke-miterlimit="10"/>
<path d="M26.9 43.66H46.22" stroke="black" stroke-width="2" stroke-miterlimit="10" stroke-linecap="round"/>
<path d="M26.9 47.95H61.96" stroke="black" stroke-width="2" stroke-miterlimit="10" stroke-linecap="round"/>
<path d="M14.83 31.52L16.88 33.44L21.89 25.77" stroke="black" stroke-width="2" stroke-linecap="round" stroke-linejoin="round"/>
<path d="M58.22 63.64L43.64 41.38C43.4682 41.0632 43.4129 40.6962 43.4838 40.3428C43.5546 39.9895 43.7472 39.6722 44.0279 39.4462C44.3087 39.2202 44.6598 39.0998 45.0201 39.106C45.3804 39.1121 45.7272 39.2445 46 39.48L59.57 53.87C59.7822 54.0574 60.0419 54.1826 60.3207 54.232C60.5994 54.2814 60.8863 54.2531 61.15 54.15L69.66 50.81C70.0152 50.6736 70.4082 50.6726 70.7641 50.8072C71.12 50.9418 71.414 51.2026 71.59 51.54L78.67 65.33C78.7617 65.512 78.8913 65.6722 79.05 65.8L80.67 67.17C80.8459 67.3145 80.9875 67.4961 81.0848 67.7019C81.1821 67.9076 81.2325 68.1324 81.2325 68.36C81.2325 68.5876 81.1821 68.8124 81.0848 69.0181C80.9875 69.2239 80.8459 69.4055 80.67 69.55L68.78 79C68.6019 79.1403 68.3951 79.2396 68.1742 79.2907C67.9534 79.3419 67.724 79.3436 67.5023 79.2959C67.2807 79.2481 67.0724 79.152 66.8922 79.0144C66.712 78.8769 66.5645 78.7012 66.46 78.5L64.84 75.35C64.6643 75.0055 64.3639 74.7408 64 74.61L50.69 69.69C50.401 69.5774 50.1527 69.3802 49.9776 69.1242C49.8026 68.8681 49.7089 68.5652 49.7089 68.255C49.7089 67.9448 49.8026 67.6419 49.9776 67.3858C50.1527 67.1298 50.401 66.9326 50.69 66.82L57.5 65.82C57.7016 65.7382 57.8836 65.6147 58.0339 65.4575C58.1843 65.3002 58.2997 65.113 58.3724 64.908C58.4452 64.7029 58.4736 64.4848 58.456 64.268C58.4383 64.0512 58.375 63.8406 58.27 63.65" fill="#F2D5C9"/>
<path d="M56.79 62.21L42.21 40C42.0382 39.6832 41.9829 39.3162 42.0538 38.9628C42.1246 38.6095 42.3172 38.2922 42.5979 38.0662C42.8787 37.8402 43.2298 37.7198 43.5901 37.726C43.9504 37.7321 44.2972 37.8645 44.57 38.1L58.14 52.44C58.3522 52.6274 58.6119 52.7526 58.8907 52.802C59.1694 52.8514 59.4564 52.8231 59.72 52.72L68.23 49.38C68.5852 49.2436 68.9782 49.2426 69.3341 49.3772C69.69 49.5118 69.984 49.7726 70.16 50.11L77.24 63.9C77.3317 64.082 77.4613 64.2422 77.62 64.37L79.23 65.74C79.4059 65.8845 79.5475 66.0661 79.6448 66.2719C79.7421 66.4776 79.7925 66.7024 79.7925 66.93C79.7925 67.1576 79.7421 67.3824 79.6448 67.5881C79.5475 67.7939 79.4059 67.9755 79.23 68.12L67.35 77.54C67.1688 77.6846 66.9573 77.7863 66.7313 77.8378C66.5053 77.8892 66.2706 77.889 66.0447 77.8371C65.8188 77.7851 65.6075 77.6829 65.4266 77.538C65.2458 77.393 65.0999 77.2091 65 77L63.38 73.84C63.2008 73.5005 62.9012 73.2401 62.54 73.11L49.23 68.21C48.9401 68.0997 48.6905 67.9039 48.5144 67.6485C48.3384 67.3931 48.2441 67.0902 48.2441 66.78C48.2441 66.4698 48.3384 66.1669 48.5144 65.9115C48.6905 65.6561 48.9401 65.4603 49.23 65.35L56.04 64.35C56.2358 64.2658 56.412 64.1418 56.5574 63.986C56.7029 63.8301 56.8143 63.6458 56.8848 63.4447C56.9553 63.2435 56.9833 63.0299 56.967 62.8174C56.9507 62.6049 56.8904 62.398 56.79 62.21Z" stroke="black" stroke-width="2" stroke-linecap="round" stroke-linejoin="round"/>
</svg>
