<svg width="128" height="128" viewBox="0 0 128 128" fill="none" xmlns="http://www.w3.org/2000/svg">
<g clip-path="url(#clip0)">
<path d="M115.201 21.3L68.3008 6.4C67.5008 6.1 66.7008 6 65.9008 6C65.1008 6 64.3008 6.1 63.5008 6.4L16.6008 21.3C13.0008 22.4 10.7008 25.9 11.0008 29.6C12.1008 42.5 20.0008 107.2 63.8008 118.7C64.5008 118.9 65.2008 119 65.9008 119C66.6008 119 67.3008 118.9 67.9008 118.7C111.701 107.2 119.601 42.4 120.701 29.6C121.101 25.9 118.801 22.4 115.201 21.3ZM114.801 29.1C113.801 39.9 106.601 102.4 66.4008 113C66.1008 113.1 65.7008 113.1 65.3008 113C25.2008 102.4 18.0008 39.9 17.0008 29.1C16.9008 28.2 17.5008 27.3 18.4008 27L65.3008 12.1C65.7008 12 66.1008 12 66.5008 12.1L113.401 27C114.301 27.3 114.901 28.2 114.801 29.1Z" fill="#B9E3B5"/>
<path d="M113.201 19.3L66.3008 4.4C65.5008 4.1 64.7008 4 63.9008 4C63.1008 4 62.3008 4.1 61.5008 4.4L14.6008 19.3C11.0008 20.4 8.70083 23.9 9.00083 27.6C10.1008 40.5 18.0008 105.2 61.8008 116.7C62.5008 116.9 63.2008 117 63.9008 117C64.6008 117 65.3008 116.9 65.9008 116.7C109.701 105.2 117.601 40.4 118.701 27.6C119.101 23.9 116.801 20.4 113.201 19.3ZM112.801 27.1C111.801 37.9 104.601 100.4 64.4008 111C64.1008 111.1 63.7008 111.1 63.3008 111C23.2008 100.4 16.0008 37.9 15.0008 27.1C14.9008 26.2 15.5008 25.3 16.4008 25L63.3008 10.1C63.7008 10 64.1008 10 64.5008 10.1L111.401 25C112.301 25.3 112.901 26.2 112.801 27.1Z" stroke="black" stroke-width="2" stroke-miterlimit="10"/>
<path d="M43.2012 29.0998V23.7998C43.2012 22.9998 43.9012 22.2998 44.7012 22.2998H45.5012C46.3012 22.2998 47.0012 22.9998 47.0012 23.7998V29.0998C47.0012 29.8998 46.3012 30.5998 45.5012 30.5998H44.7012C43.9012 30.5998 43.2012 29.9998 43.2012 29.0998Z" stroke="black" stroke-width="2" stroke-miterlimit="10" stroke-linecap="round" stroke-linejoin="round"/>
<path d="M83.6012 49.8999H78.8012C78.8012 58.0999 72.1012 64.7999 63.9012 64.7999C55.7012 64.7999 49.0012 58.0999 49.0012 49.8999H44.2012C44.2012 60.6999 53.0012 69.4999 63.8012 69.4999C74.6012 69.4999 83.6012 60.6999 83.6012 49.8999Z" fill="#F4CE64"/>
<path d="M61.6016 73.2C61.6016 74.5 62.7016 75.6 64.0016 75.6C65.3016 75.6 66.4016 74.5 66.4016 73.2V69.5H64.0016H61.6016V73.2Z" fill="#F4CE64"/>
<path d="M62.5008 63.2999C54.3008 63.2999 47.6008 56.5999 47.6008 48.3999H42.8008C42.8008 59.1999 51.6008 67.9999 62.4008 67.9999C73.2008 67.9999 82.0008 59.1999 82.0008 48.3999H77.2008C77.4008 56.5999 70.7008 63.2999 62.5008 63.2999Z" stroke="black" stroke-width="2" stroke-miterlimit="10" stroke-linecap="round" stroke-linejoin="round"/>
<path d="M45.1016 48.2999V30.8999" stroke="black" stroke-width="2" stroke-miterlimit="10" stroke-linecap="round" stroke-linejoin="round"/>
<path d="M79.7012 48.2999V30.8999" stroke="black" stroke-width="2" stroke-miterlimit="10" stroke-linecap="round" stroke-linejoin="round"/>
<path d="M47.8 24.3999H47V28.8999H47.8C49.1 28.8999 50.1 27.8999 50.1 26.5999C50 25.3999 49 24.3999 47.8 24.3999Z" stroke="black" stroke-width="2" stroke-miterlimit="10" stroke-linecap="round" stroke-linejoin="round"/>
<path d="M81.6008 29.0998V23.7998C81.6008 22.9998 80.9008 22.2998 80.1008 22.2998H79.3008C78.5008 22.2998 77.8008 22.9998 77.8008 23.7998V29.0998C77.8008 29.8998 78.5008 30.5998 79.3008 30.5998H80.1008C80.9008 30.5998 81.6008 29.9998 81.6008 29.0998Z" stroke="black" stroke-width="2" stroke-miterlimit="10" stroke-linecap="round" stroke-linejoin="round"/>
<path d="M77.0012 24.3999H77.8012V28.8999H77.0012C75.7012 28.8999 74.7012 27.8999 74.7012 26.5999C74.8012 25.3999 75.8012 24.3999 77.0012 24.3999Z" stroke="black" stroke-width="2" stroke-miterlimit="10" stroke-linecap="round" stroke-linejoin="round"/>
<path d="M64.9016 68H60.1016V71.7C60.1016 73 61.2016 74.1 62.5016 74.1C63.8016 74.1 64.9016 73 64.9016 71.7V68Z" stroke="black" stroke-width="2" stroke-miterlimit="10" stroke-linecap="round" stroke-linejoin="round"/>
<path d="M62.5008 74.0996C62.5008 77.5996 59.7008 80.4996 56.1008 80.4996H45.7008C44.1008 80.4996 42.8008 81.7996 42.8008 83.3996C42.8008 84.9996 44.1008 86.2996 45.7008 86.2996H76.3008" stroke="black" stroke-width="2" stroke-miterlimit="10" stroke-linecap="round" stroke-linejoin="round"/>
<path d="M82.0008 91.9C85.1488 91.9 87.7008 89.348 87.7008 86.2C87.7008 83.052 85.1488 80.5 82.0008 80.5C78.8528 80.5 76.3008 83.052 76.3008 86.2C76.3008 89.348 78.8528 91.9 82.0008 91.9Z" stroke="black" stroke-width="2" stroke-miterlimit="10" stroke-linecap="round" stroke-linejoin="round"/>
<path d="M82.0004 88.7996C83.4363 88.7996 84.6004 87.6355 84.6004 86.1996C84.6004 84.7637 83.4363 83.5996 82.0004 83.5996C80.5644 83.5996 79.4004 84.7637 79.4004 86.1996C79.4004 87.6355 80.5644 88.7996 82.0004 88.7996Z" fill="#B9E3B5" stroke="black" stroke-width="2" stroke-miterlimit="10" stroke-linecap="round" stroke-linejoin="round"/>
<path d="M69.7012 38.8998H65.1012V34.2998C65.1012 33.6998 64.6012 33.2998 64.1012 33.2998H60.8012C60.2012 33.2998 59.8012 33.7998 59.8012 34.2998V38.8998H55.2012C54.6012 38.8998 54.2012 39.3998 54.2012 39.8998V43.1998C54.2012 43.7998 54.7012 44.1998 55.2012 44.1998H59.8012V48.7998C59.8012 49.3998 60.3012 49.7998 60.8012 49.7998H64.1012C64.7012 49.7998 65.1012 49.2998 65.1012 48.7998V44.1998H69.7012C70.3012 44.1998 70.7012 43.6998 70.7012 43.1998V39.8998C70.8012 39.3998 70.3012 38.8998 69.7012 38.8998Z" fill="#B9E3B5" stroke="black" stroke-width="2" stroke-miterlimit="10" stroke-linecap="round" stroke-linejoin="round"/>
</g>
<defs>
<clipPath id="clip0">
<rect width="112.8" height="116" fill="white" transform="translate(8 3)"/>
</clipPath>
</defs>
</svg>
