<svg xmlns="http://www.w3.org/2000/svg" width="128" height="128" fill="none">
  <path stroke="#000" stroke-linecap="round" stroke-linejoin="round" stroke-width="2"
        d="M57.83 13h-1a2 2 0 0 0-2 2v7a2 2 0 0 0 2 2h1a2 2 0 0 0 2-2v-7a2 2 0 0 0-2-2Z" />
  <path fill="#F4CE64" d="M108.31 49.48h-6.3a19.72 19.72 0 1 1-39.44 0h-6.26a26 26 0 1 0 52 0Z" />
  <path fill="#F4CE64" d="M79.15 80.4a3.158 3.158 0 0 0 3.16 3.17 3.17 3.17 0 0 0 3.17-3.17v-4.89h-6.33v4.89Z" />
  <path stroke="#000" stroke-linecap="round" stroke-linejoin="round" stroke-width="2"
        d="M80.31 67.21a19.72 19.72 0 0 1-19.72-19.73h-6.28a26 26 0 1 0 52 0h-6.3a19.718 19.718 0 0 1-19.7 19.73v0ZM57.33 47.43V24.36M103.16 47.43V24.36M59.83 15.74h1a3 3 0 0 1 3 3v0a3 3 0 0 1-3 3h-1v-6ZM103.61 13h-1a2 2 0 0 0-2 2v7a2 2 0 0 0 2 2h1a2 2 0 0 0 2-2v-7a2 2 0 0 0-2-2ZM100.61 21.64h-1a3 3 0 0 1-3-3v0a3 3 0 0 1 3-3h1v6Z" />
  <path stroke="#000" stroke-linecap="round" stroke-linejoin="round" stroke-width="2"
        d="M77.15 73.51h6.33v4.9a3.17 3.17 0 0 1-6.34-.01v-4.9l.01.01Z" />
  <path stroke="#000" stroke-linecap="round" stroke-linejoin="round" stroke-width="2"
        d="M80.31 81.57A8.42 8.42 0 0 1 71.88 90H58.1a3.82 3.82 0 0 0-3.79 3.82v0a3.82 3.82 0 0 0 3.81 3.81h40.49" />
  <path stroke="#000" stroke-linecap="round" stroke-linejoin="round" stroke-width="2"
        d="M106.13 105.15a7.52 7.52 0 1 0 0-15.04 7.52 7.52 0 0 0 0 15.04Z" />
  <path fill="#76C23B" stroke="#000" stroke-linecap="round" stroke-linejoin="round" stroke-width="2"
        d="M106.13 101.02a3.39 3.39 0 1 0 0-6.78 3.39 3.39 0 0 0 0 6.78ZM89.92 34.92h-6.09v-6.1a1.36 1.36 0 0 0-1.36-1.36h-4.31a1.36 1.36 0 0 0-1.36 1.36v6.1h-6.1a1.361 1.361 0 0 0-1.39 1.36v4.31a1.36 1.36 0 0 0 1.36 1.36h6.1v6.1a1.36 1.36 0 0 0 1.36 1.36h4.31a1.36 1.36 0 0 0 1.36-1.36v-6.1h6.09a1.359 1.359 0 0 0 1.42-1.36v-4.31a1.36 1.36 0 0 0-1.39-1.36Z" />
  <path fill="#fff"
        d="M55.31 114.74H18.56a4.557 4.557 0 0 1-4.56-4.56V57.81a4.559 4.559 0 0 1 4.56-4.56h36.75a4.559 4.559 0 0 1 4.56 4.56v52.41a4.562 4.562 0 0 1-4.56 4.52Z" />
  <path stroke="#000" stroke-miterlimit="10" stroke-width="2"
        d="M55.26 53.25h-36.7A4.56 4.56 0 0 0 14 57.81v52.41a4.56 4.56 0 0 0 4.56 4.56h36.7a4.56 4.56 0 0 0 4.56-4.56V57.81a4.56 4.56 0 0 0-4.56-4.56Z" />
  <path stroke="#000" stroke-linecap="round" stroke-miterlimit="10" stroke-width="2"
        d="M20.57 88.8h34.18M20.57 83.33h34.18M20.57 77.86h34.18M20.57 72.4h34.18M20.57 63.28h16.34M20.57 94.27h34.18M20.57 99.74h15.86M52.49 99.74h2.26" />
</svg>
