<svg width="512" height="513.57" xmlns="http://www.w3.org/2000/svg" xmlns:svg="http://www.w3.org/2000/svg">
 <defs>
  <style>.cls-1{fill:#fff;}.cls-2{fill:#161515;}.cls-3{fill:#f7d746;}.cls-4{fill:#00f26d;}</style>
 </defs>
 <title>Geocoding</title>
 <g>
  <title>Layer 1</title>
  <g stroke="null" id="svg_10">
   <path stroke="null" id="svg_1" d="m217.93028,139.85429c-0.19454,-30.88256 22.6537,-45.47275 45.82292,-45.93964c25.96081,-0.55443 45.65756,21.84637 45.33658,48.63396c-0.2918,25.28966 -21.4573,46.17308 -46.57188,45.998c-25.669,-0.19454 -44.8016,-21.08769 -44.58761,-48.69232z" class="cls-1"/>
   <path stroke="null" id="svg_2" d="m293.34209,387.21634l-4.71749,-0.05836a29.79316,29.79316 0 0 1 4.71749,0.05836z" class="cls-2"/>
   <path stroke="null" fill="#ffd051" id="svg_3" d="m130.70041,121.49984c-5.71935,46.6886 12.80046,84.36047 41.72794,119.32828c19.01588,23.00386 34.87055,48.55615 45.53111,76.84166c-13.29652,7.09083 -27.30311,4.18252 -40.9887,2.23716c-6.80875,-0.97268 -7.38264,-7.78143 -7.66471,-13.46188c-0.61279,-12.17794 -0.19454,-24.31698 -0.27235,-36.54356c-0.05836,-7.93706 -3.40438,-10.32985 -10.52439,-6.58504c-12.04177,6.33214 -24.75469,11.19554 -37.0688,16.93434c-8.85138,4.12416 -12.22658,10.69947 -12.02231,20.15391c0.22372,10.76756 0.27235,21.55457 -0.13618,32.33186c-0.28208,7.41182 -2.15935,14.17194 -9.87269,17.08997c-7.14919,2.69432 -11.03018,-2.61651 -15.45587,-6.90602c-9.72679,-9.43499 -17.91675,-9.41553 -28.01316,-0.32098c-2.06208,1.85782 -3.667,4.32842 -6.95466,4.01717c-16.11729,-54.37277 -6.88657,-105.84695 19.07424,-154.85053a192.89201,192.89201 0 0 1 62.64054,-70.26635z"/>
   <path stroke="null" id="svg_4" d="m465.10751,325.49985c-1.78,22.37162 -11.43871,42.28236 -19.40495,62.73781c-3.89072,6.0987 -9.57116,4.69804 -15.03762,3.47246c-43.11887,-9.99914 -86.50036,-18.25719 -130.93235,-19.73566l-72.95094,-1.7411l0,0c-5.75826,1.40066 -11.81805,1.43957 -17.61522,1.69246c-43.07996,1.78 -85.18724,9.49335 -127.08054,18.97697c-6.40023,1.43957 -13.76341,5.37892 -18.63653,-3.25848c-7.37291,-12.75182 -10.75783,-26.94321 -14.48319,-40.95952c6.69203,-13.55915 14.64855,-17.07052 29.93907,-13.81204c4.74667,0.97268 7.334,3.47246 8.39422,8.09269c1.18667,5.12602 4.10471,8.54985 9.9116,7.53826c6.3905,-1.14776 7.6258,-6.05979 7.6258,-11.56516c0,-14.53183 0,-29.01502 0,-43.49821c0,-5.26219 -0.08754,-9.83379 6.13761,-12.54756c20.42626,-8.89029 40.58018,-18.38364 62.47518,-28.37305c0,19.8232 0.30153,37.93449 -0.16536,55.99714c-0.16536,7.41182 2.2858,9.86297 9.6198,9.53226c11.67215,-0.51552 23.3443,-0.2529 35.01645,-0.34044c7.8787,13.61751 13.47161,28.25633 18.00429,43.24532l35.01645,-35.41525l17.68331,28.45087c14.48319,-43.41067 37.6135,-79.95423 66.96896,-115.44729c18.0432,3.68645 20.70834,6.90602 21.13632,25.28966c0.12645,5.59291 -0.42798,11.27335 0.42798,16.81762c1.43957,9.72679 8.4234,13.05335 14.01631,5.554c10.75783,-14.44429 25.16321,-11.9445 39.48105,-11.56516c8.4234,0.16536 12.75182,4.78558 13.20898,13.17008a30.99929,30.99929 0 0 1 0.26262,5.59291c-1.93563,16.51609 -0.24317,30.65885 20.98069,32.09841z" class="cls-2"/>
   <path stroke="null" fill="#ffd051" id="svg_5" d="m465.09779,325.49012c-24.6866,-0.52525 -24.6866,-0.52525 -24.6866,-25.20212c0,-21.61293 0,-21.69075 -22.37162,-21.57402c-8.9681,0.05836 -18.39336,-2.55815 -22.14791,10.93291c-1.94536,7.05192 -11.45816,4.54241 -17.72221,3.98798c-7.14919,-0.62251 -4.40624,-6.80875 -4.97039,-11.03991a24.4337,24.4337 0 0 1 0,-2.80132c-0.32098,-16.11729 5.20383,-34.71492 -17.57631,-41.27078c16.18538,-22.92605 28.43141,-46.59133 33.95623,-75.15892c1.89672,-9.82406 -5.83608,-37.93449 6.31269,-28.30496c51.77571,46.45516 74.73094,104.91318 72.13389,173.87613c-0.27235,5.554 -1.93563,11.03991 -2.92776,16.555z"/>
   <path stroke="null" id="svg_6" d="m431.51117,413.31332c-31.80661,50.23888 -78.06723,80.35303 -135.54285,90.9455c-87.0937,16.0103 -158.16736,-13.29652 -213.01674,-82.43456c-1.94536,-2.49979 -3.30711,-5.54427 -4.96066,-8.34559c3.43356,-5.16493 9.15291,-6.0987 14.49292,-7.48963c43.03133,-11.31226 86.99643,-16.14647 131.18524,-19.22987l12.1974,0.07781l52.75812,0.32098l4.74667,0c41.12488,3.2682 82.0844,7.78143 122.07124,18.43227c5.77771,1.62437 12.04177,2.34416 16.06866,7.72307z" class="cls-2"/>
   <path stroke="null" id="svg_7" d="m217.95946,371.48812" class="cls-2"/>
   <path id="svg_8" d="m394.24783,147.8789c0,1.58547 -0.11672,3.16121 -0.23344,4.73695c-1.94536,27.60464 -16.2632,52.84566 -29.89043,76.26778l-109.91275,188.79703l-116.7215,-201.86011c-6.91575,-11.96395 -13.88986,-24.04463 -18.01402,-37.23416c-4.59105,-14.69718 -5.48591,-30.40595 -3.79345,-45.71592c4.9023,-44.66543 32.87656,-86.1502 72.43542,-107.49078s89.60321,-21.86583 129.61923,-1.42011c44.16936,22.56616 77.93106,73.34001 76.51095,123.91933z" class="cls-4" fill="black"/>
   <path stroke="null" id="svg_9" d="m208.86491,143.85201c-0.20426,-30.98956 22.72179,-45.57975 45.95909,-46.07581c26.01917,-0.55443 45.79374,21.89501 45.47275,48.77013c-0.2918,25.34802 -21.52539,46.31898 -46.6886,46.1439c-25.76627,-0.18481 -44.96696,-21.14605 -44.74324,-48.83822z" class="cls-1"/>
  </g>
 </g>
</svg>
