<svg width="128" height="128" viewBox="0 0 128 128" fill="none" xmlns="http://www.w3.org/2000/svg">
<path d="M95.58 85.91H59.23C58.0339 85.91 56.8867 85.4348 56.0409 84.5891C55.1952 83.7433 54.72 82.5961 54.72 81.4V29.5C54.7226 28.3056 55.199 27.161 56.0445 26.3174C56.89 25.4738 58.0356 25 59.23 25H95.58C96.7761 25 97.9233 25.4752 98.7691 26.3209C99.6148 27.1667 100.09 28.3139 100.09 29.51V81.4C100.09 82.5961 99.6148 83.7433 98.7691 84.5891C97.9233 85.4348 96.7761 85.91 95.58 85.91Z" fill="white"/>
<path d="M95.59 24.99H59.23C56.7392 24.99 54.72 27.0092 54.72 29.5V81.4C54.72 83.8908 56.7392 85.91 59.23 85.91H95.59C98.0808 85.91 100.1 83.8908 100.1 81.4V29.5C100.1 27.0092 98.0808 24.99 95.59 24.99Z" stroke="black" stroke-width="2" stroke-miterlimit="10"/>
<path d="M61.22 33.11H95.07" stroke="black" stroke-width="2" stroke-miterlimit="10" stroke-linecap="round"/>
<path d="M61.22 38.53H95.07" stroke="black" stroke-width="2" stroke-miterlimit="10" stroke-linecap="round"/>
<path d="M61.22 43.94H76.93" stroke="black" stroke-width="2" stroke-miterlimit="10" stroke-linecap="round"/>
<path d="M84.56 81.4H48.21C47.6169 81.4013 47.0294 81.2856 46.481 81.0596C45.9327 80.8335 45.4343 80.5015 45.0145 80.0826C44.5946 79.6637 44.2615 79.166 44.0343 78.6182C43.807 78.0704 43.69 77.4831 43.69 76.89V25C43.69 24.4069 43.807 23.8196 44.0343 23.2718C44.2615 22.724 44.5946 22.2263 45.0145 21.8074C45.4343 21.3885 45.9327 21.0565 46.481 20.8304C47.0294 20.6044 47.6169 20.4887 48.21 20.49H84.56C85.7561 20.49 86.9033 20.9652 87.7491 21.811C88.5948 22.6567 89.07 23.8039 89.07 25V76.9C89.07 77.4923 88.9534 78.0787 88.7267 78.6259C88.5001 79.1731 88.1679 79.6703 87.7491 80.0891C87.3303 80.5078 86.8331 80.84 86.2859 81.0667C85.7387 81.2933 85.1523 81.41 84.56 81.41" fill="white"/>
<path d="M84.56 20.48H48.2C45.7092 20.48 43.69 22.4992 43.69 24.99V76.89C43.69 79.3808 45.7092 81.4 48.2 81.4H84.56C87.0508 81.4 89.07 79.3808 89.07 76.89V24.99C89.07 22.4992 87.0508 20.48 84.56 20.48Z" stroke="black" stroke-width="2" stroke-miterlimit="10"/>
<path d="M50.2 28.6H84.04" stroke="black" stroke-width="2" stroke-miterlimit="10" stroke-linecap="round"/>
<path d="M50.2 34.01H84.04" stroke="black" stroke-width="2" stroke-miterlimit="10" stroke-linecap="round"/>
<path d="M50.2 39.43H65.9" stroke="black" stroke-width="2" stroke-miterlimit="10" stroke-linecap="round"/>
<path d="M73.35 77H37C36.4069 77 35.8196 76.883 35.2718 76.6557C34.724 76.4285 34.2263 76.0954 33.8074 75.6755C33.3885 75.2557 33.0565 74.7573 32.8304 74.209C32.6044 73.6606 32.4887 73.0731 32.49 72.48V20.53C32.4874 19.9361 32.6021 19.3474 32.8275 18.798C33.053 18.2485 33.3848 17.7489 33.8039 17.328C34.2229 16.9071 34.721 16.5731 35.2695 16.3452C35.818 16.1173 36.4061 16 37 16H73.35C73.9423 16 74.5287 16.1167 75.0759 16.3433C75.6231 16.57 76.1203 16.9022 76.5391 17.3209C76.9579 17.7397 77.29 18.2369 77.5167 18.7841C77.7433 19.3313 77.86 19.9177 77.86 20.51V72.41C77.8706 73.009 77.7618 73.604 77.5399 74.1605C77.3181 74.7169 76.9875 75.2236 76.5677 75.6509C76.1478 76.0782 75.647 76.4176 75.0946 76.6492C74.5421 76.8808 73.9491 77.0001 73.35 77Z" fill="white"/>
<path d="M73.36 16.02H37C34.5092 16.02 32.49 18.0392 32.49 20.53V72.43C32.49 74.9208 34.5092 76.94 37 76.94H73.36C75.8508 76.94 77.87 74.9208 77.87 72.43V20.53C77.87 18.0392 75.8508 16.02 73.36 16.02Z" stroke="black" stroke-width="2" stroke-miterlimit="10"/>
<path d="M38.99 24.14H72.84" stroke="black" stroke-width="2" stroke-miterlimit="10" stroke-linecap="round"/>
<path d="M38.99 29.56H72.84" stroke="black" stroke-width="2" stroke-miterlimit="10" stroke-linecap="round"/>
<path d="M38.99 34.98H54.7" stroke="black" stroke-width="2" stroke-miterlimit="10" stroke-linecap="round"/>
<path d="M99.24 111.63H28.18C26.8539 111.63 25.5821 111.103 24.6445 110.166C23.7068 109.228 23.18 107.956 23.18 106.63V59.16C23.18 57.8339 23.7068 56.5622 24.6445 55.6245C25.5821 54.6868 26.8539 54.16 28.18 54.16H58.55C59.3262 54.16 60.0918 54.3407 60.7861 54.6879C61.4803 55.035 62.0843 55.539 62.55 56.16L67.26 62.26C67.7309 62.8718 68.3371 63.3662 69.0311 63.7045C69.7251 64.0428 70.488 64.2159 71.26 64.21H99.24C100.566 64.21 101.838 64.7368 102.776 65.6745C103.713 66.6122 104.24 67.8839 104.24 69.21V106.68C104.24 108.006 103.713 109.278 102.776 110.216C101.838 111.153 100.566 111.68 99.24 111.68" fill="white"/>
<path d="M99.24 111.63H28.18C26.8539 111.63 25.5821 111.103 24.6445 110.166C23.7068 109.228 23.18 107.956 23.18 106.63V59.16C23.18 57.8339 23.7068 56.5622 24.6445 55.6245C25.5821 54.6868 26.8539 54.16 28.18 54.16H58.55C59.3262 54.16 60.0918 54.3407 60.7861 54.6879C61.4803 55.035 62.0843 55.539 62.55 56.16L67.26 62.26C67.7309 62.8718 68.3371 63.3662 69.0311 63.7045C69.7251 64.0428 70.488 64.2159 71.26 64.21H99.24C100.566 64.21 101.838 64.7368 102.776 65.6745C103.713 66.6122 104.24 67.8839 104.24 69.21V106.68C104.227 107.997 103.694 109.256 102.758 110.183C101.822 111.11 100.557 111.63 99.24 111.63V111.63Z" stroke="black" stroke-width="2" stroke-miterlimit="10"/>
<path d="M102.24 114.63H31.18C29.8539 114.63 28.5821 114.103 27.6445 113.166C26.7068 112.228 26.18 110.956 26.18 109.63V62.16C26.18 60.8339 26.7068 59.5622 27.6445 58.6245C28.5821 57.6868 29.8539 57.16 31.18 57.16H61.55C62.3262 57.16 63.0918 57.3407 63.7861 57.6879C64.4803 58.035 65.0843 58.539 65.55 59.16L70.26 65.26C70.7257 65.881 71.3296 66.385 72.0239 66.7321C72.7182 67.0793 73.4838 67.26 74.26 67.26H102.32C103.646 67.26 104.918 67.7868 105.856 68.7245C106.793 69.6622 107.32 70.9339 107.32 72.26V109.73C107.32 111.056 106.793 112.328 105.856 113.266C104.918 114.203 103.646 114.73 102.32 114.73" fill="#F4CE64"/>
<path d="M99.24 111.63H28.18C26.8539 111.63 25.5821 111.103 24.6445 110.166C23.7068 109.228 23.18 107.956 23.18 106.63V59.16C23.18 57.8339 23.7068 56.5622 24.6445 55.6245C25.5821 54.6868 26.8539 54.16 28.18 54.16H58.55C59.3262 54.16 60.0918 54.3407 60.7861 54.6879C61.4803 55.035 62.0843 55.539 62.55 56.16L67.26 62.26C67.7309 62.8718 68.3371 63.3662 69.0311 63.7045C69.7251 64.0428 70.488 64.2159 71.26 64.21H99.24C100.566 64.21 101.838 64.7368 102.776 65.6745C103.713 66.6122 104.24 67.8839 104.24 69.21V106.68C104.227 107.997 103.694 109.256 102.758 110.183C101.822 111.11 100.557 111.63 99.24 111.63V111.63Z" stroke="black" stroke-width="2" stroke-miterlimit="10"/>
<path d="M64.39 98.69C71.0561 98.69 76.46 93.2861 76.46 86.62C76.46 79.9539 71.0561 74.55 64.39 74.55C57.7239 74.55 52.32 79.9539 52.32 86.62C52.32 93.2861 57.7239 98.69 64.39 98.69Z" fill="white"/>
<path d="M66.39 90.93C69.2232 90.93 71.52 88.6332 71.52 85.8C71.52 82.9668 69.2232 80.67 66.39 80.67C63.5568 80.67 61.26 82.9668 61.26 85.8C61.26 88.6332 63.5568 90.93 66.39 90.93Z" fill="#76C23B"/>
<path d="M66.39 100.69C69.2931 100.676 72.0927 99.6103 74.27 97.69C73.4672 96.3121 72.317 95.1687 70.9343 94.3741C69.5517 93.5795 67.9848 93.1613 66.39 93.1613C64.7953 93.1613 63.2284 93.5795 61.8457 94.3741C60.463 95.1687 59.3129 96.3121 58.51 97.69C60.6873 99.6103 63.4869 100.676 66.39 100.69Z" fill="#76C23B"/>
<path d="M64.39 88.93C67.2232 88.93 69.52 86.6332 69.52 83.8C69.52 80.9668 67.2232 78.67 64.39 78.67C61.5568 78.67 59.26 80.9668 59.26 83.8C59.26 86.6332 61.5568 88.93 64.39 88.93Z" stroke="black" stroke-width="2" stroke-miterlimit="10"/>
<path d="M64.39 98.69C67.2931 98.6761 70.0927 97.6103 72.27 95.69C71.4672 94.3121 70.317 93.1687 68.9343 92.3741C67.5517 91.5795 65.9848 91.1613 64.39 91.1613C62.7953 91.1613 61.2284 91.5795 59.8457 92.3741C58.463 93.1687 57.3129 94.3121 56.51 95.69C58.6873 97.6103 61.4869 98.6761 64.39 98.69V98.69Z" stroke="black" stroke-width="2" stroke-miterlimit="10"/>
<path d="M64.39 98.69C71.0561 98.69 76.46 93.2861 76.46 86.62C76.46 79.9539 71.0561 74.55 64.39 74.55C57.7239 74.55 52.32 79.9539 52.32 86.62C52.32 93.2861 57.7239 98.69 64.39 98.69Z" stroke="black" stroke-width="2" stroke-miterlimit="10"/>
</svg>
