<svg width="128" height="128" viewBox="0 0 128 128" fill="none" xmlns="http://www.w3.org/2000/svg">
<path d="M113.89 45.57H14.11V82.16H113.89V45.57Z" fill="#F4CE64"/>
<path d="M14.11 110H113.89" stroke="black" stroke-width="1.5" stroke-linecap="round" stroke-linejoin="round"/>
<path d="M24 110V109" stroke="black" stroke-width="1.5" stroke-linecap="round" stroke-linejoin="round"/>
<path d="M24 104.89V26.84" stroke="black" stroke-width="1.5" stroke-linecap="round" stroke-linejoin="round" stroke-dasharray="2.05 4.11"/>
<path d="M24 24.78V23.78" stroke="black" stroke-width="1.5" stroke-linecap="round" stroke-linejoin="round"/>
<path d="M44 110V109" stroke="black" stroke-width="1.5" stroke-linecap="round" stroke-linejoin="round"/>
<path d="M44 104.89V26.84" stroke="black" stroke-width="1.5" stroke-linecap="round" stroke-linejoin="round" stroke-dasharray="2.05 4.11"/>
<path d="M44 24.78V23.78" stroke="black" stroke-width="1.5" stroke-linecap="round" stroke-linejoin="round"/>
<path d="M64 110V109" stroke="black" stroke-width="1.5" stroke-linecap="round" stroke-linejoin="round"/>
<path d="M64 104.89V26.84" stroke="black" stroke-width="1.5" stroke-linecap="round" stroke-linejoin="round" stroke-dasharray="2.05 4.11"/>
<path d="M64 24.78V23.78" stroke="black" stroke-width="1.5" stroke-linecap="round" stroke-linejoin="round"/>
<path d="M84 110V109" stroke="black" stroke-width="1.5" stroke-linecap="round" stroke-linejoin="round"/>
<path d="M84 104.89V26.84" stroke="black" stroke-width="1.5" stroke-linecap="round" stroke-linejoin="round" stroke-dasharray="2.05 4.11"/>
<path d="M84 24.78V23.78" stroke="black" stroke-width="1.5" stroke-linecap="round" stroke-linejoin="round"/>
<path d="M104 110V109" stroke="black" stroke-width="1.5" stroke-linecap="round" stroke-linejoin="round"/>
<path d="M104 104.89V26.84" stroke="black" stroke-width="1.5" stroke-linecap="round" stroke-linejoin="round" stroke-dasharray="2.05 4.11"/>
<path d="M104 24.78V23.78" stroke="black" stroke-width="1.5" stroke-linecap="round" stroke-linejoin="round"/>
<path d="M51.18 44.34C48.5736 46.8732 46.7767 50.1223 46.0166 53.6766C45.2564 57.2309 45.5672 60.9307 46.9095 64.3084C48.2518 67.6861 50.5654 70.59 53.5579 72.653C56.5504 74.716 60.0873 75.8454 63.7215 75.8985C67.3558 75.9516 70.9242 74.926 73.9757 72.9514C77.0271 70.9768 79.4246 68.1417 80.8651 64.8047C82.3056 61.4677 82.7243 57.7785 82.0684 54.2035C81.4124 50.6285 79.7113 47.3283 77.18 44.72C75.4982 42.9871 73.4915 41.6025 71.2744 40.6455C69.0573 39.6885 66.6733 39.1777 64.2587 39.1424C61.8442 39.1071 59.4463 39.548 57.2022 40.4398C54.9581 41.3317 52.9117 42.657 51.18 44.34" stroke="black" stroke-width="2" stroke-linecap="round" stroke-linejoin="round"/>
<path d="M47.57 40.62C44.2276 43.8664 41.923 48.031 40.9473 52.5871C39.9717 57.1433 40.369 61.8864 42.0889 66.2168C43.8088 70.5472 46.7741 74.2704 50.6099 76.9156C54.4457 79.5608 58.9797 81.0092 63.6386 81.0777C68.2976 81.1462 72.8722 79.8318 76.7841 77.3005C80.6961 74.7692 83.7696 71.1349 85.6161 66.8569C87.4626 62.579 87.9991 57.8496 87.1579 53.2667C86.3167 48.6838 84.1354 44.4533 80.89 41.11C76.5356 36.6281 70.5796 34.0589 64.3314 33.967C58.0833 33.8751 52.0543 36.2681 47.57 40.62ZM76.79 70.71C74.1817 73.2413 70.8815 74.9424 67.3065 75.5984C63.7315 76.2543 60.0423 75.8356 56.7053 74.3951C53.3683 72.9547 50.5332 70.5572 48.5586 67.5057C46.584 64.4542 45.5584 60.8858 45.6115 57.2515C45.6646 53.6173 46.794 50.0804 48.857 47.0879C50.92 44.0955 53.8239 41.7818 57.2016 40.4395C60.5793 39.0972 64.2791 38.7865 67.8334 39.5466C71.3877 40.3067 74.6368 42.1036 77.17 44.71C78.853 46.4417 80.1783 48.4881 81.0702 50.7322C81.962 52.9763 82.4029 55.3742 82.3676 57.7888C82.3323 60.2033 81.8215 62.5873 80.8645 64.8044C79.9075 67.0215 78.5229 69.0282 76.79 70.71Z" fill="white"/>
<path d="M47.57 40.62C44.2276 43.8664 41.923 48.031 40.9473 52.5871C39.9717 57.1433 40.369 61.8864 42.0889 66.2168C43.8088 70.5472 46.7741 74.2704 50.6099 76.9156C54.4457 79.5608 58.9797 81.0092 63.6386 81.0777C68.2976 81.1462 72.8722 79.8318 76.7841 77.3005C80.6961 74.7692 83.7696 71.1349 85.6161 66.8569C87.4626 62.579 87.9991 57.8496 87.1579 53.2667C86.3167 48.6838 84.1354 44.4533 80.89 41.11C76.5356 36.6281 70.5796 34.0589 64.3314 33.967C58.0833 33.8751 52.0543 36.2681 47.57 40.62ZM76.79 70.71C74.1817 73.2413 70.8815 74.9424 67.3065 75.5984C63.7315 76.2543 60.0423 75.8356 56.7053 74.3951C53.3683 72.9547 50.5332 70.5572 48.5586 67.5057C46.584 64.4542 45.5584 60.8858 45.6115 57.2515C45.6646 53.6173 46.794 50.0804 48.857 47.0879C50.92 44.0955 53.8239 41.7818 57.2016 40.4395C60.5793 39.0972 64.2791 38.7865 67.8334 39.5466C71.3877 40.3067 74.6368 42.1036 77.17 44.71C78.853 46.4417 80.1783 48.4881 81.0702 50.7322C81.962 52.9763 82.4029 55.3742 82.3676 57.7888C82.3323 60.2033 81.8215 62.5873 80.8645 64.8044C79.9075 67.0215 78.5229 69.0282 76.79 70.71Z" fill="white" stroke="black" stroke-width="2" stroke-linecap="round" stroke-linejoin="round"/>
<path d="M88.0103 79.2028L84.9614 82.1636C83.9867 83.1102 83.9638 84.6676 84.9104 85.6422L100.564 101.762C101.511 102.737 103.068 102.76 104.043 101.813L107.092 98.8523C108.067 97.9058 108.089 96.3484 107.143 95.3737L91.4889 79.2538C90.5424 78.2792 88.985 78.2563 88.0103 79.2028Z" fill="#76C23B" stroke="black" stroke-width="2" stroke-linecap="round" stroke-linejoin="round"/>
<path d="M82.4213 72.4762L78.3967 76.3845L84.4717 82.6402L88.4962 78.7319L82.4213 72.4762Z" fill="white" stroke="black" stroke-width="2" stroke-linecap="round" stroke-linejoin="round"/>
<path d="M64 72.09C72.0357 72.09 78.55 65.5757 78.55 57.54C78.55 49.5042 72.0357 42.99 64 42.99C55.9643 42.99 49.45 49.5042 49.45 57.54C49.45 65.5757 55.9643 72.09 64 72.09Z" fill="#76C23B" stroke="black" stroke-width="1.5" stroke-linecap="round" stroke-linejoin="round"/>
<path d="M71.43 54.03L62.7 62.77L58.34 58.4" stroke="black" stroke-width="1.5" stroke-linecap="round" stroke-linejoin="round"/>
</svg>
