<svg width="128" height="128" viewBox="0 0 128 128" fill="none" xmlns="http://www.w3.org/2000/svg">
<path d="M96.86 35.07V35.34H99.26C99.5769 35.3413 99.8908 35.2799 100.184 35.1592C100.477 35.0386 100.743 34.8611 100.967 34.6371C101.191 34.413 101.369 34.1468 101.489 33.8538C101.61 33.5608 101.671 33.2469 101.67 32.93V20.76C101.671 20.4427 101.61 20.1282 101.489 19.8347C101.369 19.5411 101.192 19.2742 100.968 19.0494C100.744 18.8245 100.478 18.6461 100.185 18.5244C99.8915 18.4027 99.5773 18.34 99.26 18.34H96.86V18.62C96.86 17.8243 96.5439 17.0613 95.9813 16.4987C95.4187 15.9361 94.6557 15.62 93.86 15.62H83.69C82.8944 15.62 82.1313 15.9361 81.5687 16.4987C81.0061 17.0613 80.69 17.8243 80.69 18.62V35.07C80.69 35.8656 81.0061 36.6287 81.5687 37.1913C82.1313 37.7539 82.8944 38.07 83.69 38.07H93.86C94.6557 38.07 95.4187 37.7539 95.9813 37.1913C96.5439 36.6287 96.86 35.8656 96.86 35.07Z" fill="#F4CE64"/>
<path d="M26.85 24.85C26.85 22.5956 27.7455 20.4336 29.3396 18.8396C30.9337 17.2455 33.0957 16.35 35.35 16.35H78.69V33.35H35.35C33.0965 33.3473 30.936 32.4509 29.3425 30.8575C27.749 29.264 26.8526 27.1035 26.85 24.85V24.85Z" stroke="black" stroke-width="2" stroke-miterlimit="10"/>
<path d="M91.86 13.62H81.69C80.0331 13.62 78.69 14.9631 78.69 16.62V33.07C78.69 34.7269 80.0331 36.07 81.69 36.07H91.86C93.5169 36.07 94.86 34.7269 94.86 33.07V16.62C94.86 14.9631 93.5169 13.62 91.86 13.62Z" stroke="black" stroke-width="2" stroke-miterlimit="10"/>
<path d="M94.86 33.35V16.35H97.26C97.5769 16.3487 97.8908 16.4101 98.1838 16.5308C98.4768 16.6514 98.743 16.8289 98.9671 17.0529C99.1911 17.277 99.3686 17.5432 99.4892 17.8362C99.6099 18.1292 99.6713 18.4431 99.67 18.76V30.94C99.67 31.5792 99.4161 32.1922 98.9641 32.6441C98.5122 33.0961 97.8992 33.35 97.26 33.35H94.86Z" stroke="black" stroke-width="2" stroke-miterlimit="10"/>
<path d="M94.44 24.96H85.44" stroke="black" stroke-width="2" stroke-miterlimit="10" stroke-linecap="round"/>
<path d="M94.44 19.92H85.44" stroke="black" stroke-width="2" stroke-miterlimit="10" stroke-linecap="round"/>
<path d="M94.44 31H85.44" stroke="black" stroke-width="2" stroke-miterlimit="10" stroke-linecap="round"/>
<path d="M37.62 23.46V16.35H72.36V23.46C72.36 24.2556 72.0439 25.0187 71.4813 25.5813C70.9187 26.1439 70.1557 26.46 69.36 26.46H40.62C39.8243 26.46 39.0613 26.1439 38.4987 25.5813C37.9361 25.0187 37.62 24.2556 37.62 23.46Z" stroke="black" stroke-width="2" stroke-miterlimit="10" stroke-linecap="round"/>
<path d="M58 64.09C58 64.4856 57.8827 64.8723 57.6629 65.2012C57.4432 65.5301 57.1308 65.7864 56.7654 65.9378C56.3999 66.0892 55.9978 66.1288 55.6098 66.0516C55.2219 65.9744 54.8655 65.7839 54.5858 65.5042C54.3061 65.2245 54.1156 64.8682 54.0384 64.4802C53.9613 64.0922 54.0009 63.6901 54.1522 63.3247C54.3036 62.9592 54.56 62.6468 54.8889 62.4271C55.2178 62.2073 55.6044 62.09 56 62.09C56.5304 62.09 57.0391 62.3007 57.4142 62.6758C57.7893 63.0509 58 63.5596 58 64.09Z" fill="#F4CE64"/>
<path d="M56 66.09C57.1046 66.09 58 65.1946 58 64.09C58 62.9855 57.1046 62.09 56 62.09C54.8954 62.09 54 62.9855 54 64.09C54 65.1946 54.8954 66.09 56 66.09Z" stroke="black" stroke-width="2" stroke-miterlimit="10"/>
<path d="M66 64.09C66 64.4856 65.8827 64.8723 65.6629 65.2012C65.4432 65.5301 65.1308 65.7864 64.7654 65.9378C64.3999 66.0892 63.9978 66.1288 63.6098 66.0516C63.2219 65.9744 62.8655 65.7839 62.5858 65.5042C62.3061 65.2245 62.1156 64.8682 62.0384 64.4802C61.9613 64.0922 62.0009 63.6901 62.1522 63.3247C62.3036 62.9592 62.56 62.6468 62.8889 62.4271C63.2178 62.2073 63.6044 62.09 64 62.09C64.5304 62.09 65.0391 62.3007 65.4142 62.6758C65.7893 63.0509 66 63.5596 66 64.09Z" fill="#F4CE64"/>
<path d="M64 66.09C65.1046 66.09 66 65.1946 66 64.09C66 62.9855 65.1046 62.09 64 62.09C62.8954 62.09 62 62.9855 62 64.09C62 65.1946 62.8954 66.09 64 66.09Z" stroke="black" stroke-width="2" stroke-miterlimit="10"/>
<path d="M74 64.09C74 64.4856 73.8827 64.8723 73.6629 65.2012C73.4432 65.5301 73.1308 65.7864 72.7654 65.9378C72.3999 66.0892 71.9978 66.1288 71.6098 66.0516C71.2219 65.9744 70.8655 65.7839 70.5858 65.5042C70.3061 65.2245 70.1156 64.8682 70.0384 64.4802C69.9613 64.0922 70.0009 63.6901 70.1522 63.3247C70.3036 62.9592 70.56 62.6468 70.8889 62.4271C71.2178 62.2073 71.6044 62.09 72 62.09C72.5304 62.09 73.0391 62.3007 73.4142 62.6758C73.7893 63.0509 74 63.5596 74 64.09Z" fill="#F4CE64"/>
<path d="M72 66.09C73.1046 66.09 74 65.1946 74 64.09C74 62.9855 73.1046 62.09 72 62.09C70.8954 62.09 70 62.9855 70 64.09C70 65.1946 70.8954 66.09 72 66.09Z" stroke="black" stroke-width="2" stroke-miterlimit="10"/>
<path d="M73.84 56.62H54.17C51.4086 56.62 49.17 58.8586 49.17 61.62V66.56C49.17 69.3214 51.4086 71.56 54.17 71.56H73.84C76.6014 71.56 78.84 69.3214 78.84 66.56V61.62C78.84 58.8586 76.6014 56.62 73.84 56.62Z" stroke="black" stroke-width="2" stroke-miterlimit="10"/>
<path d="M64 115.14C69.81 115.14 74.52 110.43 74.52 104.62C74.52 98.8099 69.81 94.1 64 94.1C58.19 94.1 53.48 98.8099 53.48 104.62C53.48 110.43 58.19 115.14 64 115.14Z" fill="#76C23B" stroke="black" stroke-width="1.5" stroke-linecap="round" stroke-linejoin="round"/>
<path d="M69.37 102.08L63.06 108.4L59.91 105.24" stroke="black" stroke-width="1.5" stroke-linecap="round" stroke-linejoin="round"/>
<path d="M34.87 63.99H12.46" stroke="black" stroke-width="1.5" stroke-linecap="round" stroke-linejoin="round"/>
<path d="M29.79 58.7L35.18 64.09L29.79 69.47" stroke="black" stroke-width="1.5" stroke-linecap="round" stroke-linejoin="round"/>
<path d="M115.26 63.9H92.85" stroke="black" stroke-width="1.5" stroke-linecap="round" stroke-linejoin="round"/>
<path d="M110.18 58.6L115.57 63.99L110.18 69.38" stroke="black" stroke-width="1.5" stroke-linecap="round" stroke-linejoin="round"/>
<path d="M64 37.15V52.81" stroke="black" stroke-width="1.5" stroke-linecap="round" stroke-linejoin="round"/>
<path d="M64 75.16V90.81" stroke="black" stroke-width="1.5" stroke-linecap="round" stroke-linejoin="round"/>
</svg>
