<svg id="Слой_1" data-name="Слой 1" xmlns="http://www.w3.org/2000/svg" viewBox="0 0 36 36"><defs><style>.cls-1{fill:#8bc043;}.cls-2{fill:none;stroke:#13353f;stroke-linecap:round;stroke-linejoin:round;}</style></defs><path class="cls-1" d="M30.54,11.54a4.13,4.13,0,1,1-8.26,0c0-2.28,4.13-6.34,4.13-6.34S30.54,9.26,30.54,11.54Z"/><path class="cls-2" d="M13.72,11.11,24.78,22.17a1.31,1.31,0,0,1,0,1.85l-3.87,3.86a1.3,1.3,0,0,1-1.84,0L8,16.82"/><path class="cls-2" d="M14.18,10.65,7.54,17.29a1,1,0,0,1-1.43,0h0a1,1,0,0,1,0-1.44l6.64-6.64a1,1,0,0,1,1.43,0h0A1,1,0,0,1,14.18,10.65Z"/><line class="cls-2" x1="14.01" y1="22.82" x2="15.71" y2="21.12"/><line class="cls-2" x1="15.89" y1="24.7" x2="17.59" y2="23"/><line class="cls-2" x1="17.77" y1="26.58" x2="19.47" y2="24.88"/><path class="cls-2" d="M24.11,24.68,25.43,26a.83.83,0,0,1,0,1.17l-1.36,1.36a.83.83,0,0,1-1.17,0l-1.32-1.32"/><line class="cls-2" x1="24.75" y1="27.85" x2="28.54" y2="31.64"/><line class="cls-2" x1="9.43" y1="12.53" x2="6.9" y2="10"/><line class="cls-2" x1="4.64" y1="12.26" x2="9.16" y2="7.74"/><line class="cls-2" x1="10.25" y1="19.06" x2="11.95" y2="17.36"/><line class="cls-2" x1="12.13" y1="20.94" x2="13.83" y2="19.24"/></svg>